<?xml version="1.0" encoding="UTF-8" standalone="no"?>
<!-- Created with Inkscape (http://www.inkscape.org/) -->

<svg
   width="21.4mm"
   height="21.4mm"
   viewBox="0 0 21.4 21.4"
   version="1.1"
   id="svg827"
   inkscape:version="1.1.2 (0a00cf5339, 2022-02-04)"
   sodipodi:docname="librecounter.svg"
   xmlns:inkscape="http://www.inkscape.org/namespaces/inkscape"
   xmlns:sodipodi="http://sodipodi.sourceforge.net/DTD/sodipodi-0.dtd"
   xmlns="http://www.w3.org/2000/svg"
   xmlns:svg="http://www.w3.org/2000/svg">
  <sodipodi:namedview
     id="namedview829"
     pagecolor="#c3c3c3"
     bordercolor="#eeeeee"
     borderopacity="1"
     inkscape:pageshadow="0"
     inkscape:pageopacity="0"
     inkscape:pagecheckerboard="0"
     inkscape:document-units="mm"
     showgrid="false"
     inkscape:zoom="11.458793"
     inkscape:cx="100.83959"
     inkscape:cy="40.449286"
     inkscape:window-width="3840"
     inkscape:window-height="2075"
     inkscape:window-x="0"
     inkscape:window-y="0"
     inkscape:window-maximized="1"
     inkscape:current-layer="layer1"
     fit-margin-top="0"
     fit-margin-left="0"
     fit-margin-right="0"
     fit-margin-bottom="0" />
  <defs
     id="defs824">
    <marker
       style="overflow:visible"
       id="Arrow1Send"
       refX="0"
       refY="0"
       orient="auto"
       inkscape:stockid="Arrow1Send"
       inkscape:isstock="true">
      <path
         transform="matrix(-0.2,0,0,-0.2,-1.2,0)"
         style="fill:context-stroke;fill-rule:evenodd;stroke:context-stroke;stroke-width:1pt"
         d="M 0,0 5,-5 -12.5,0 5,5 Z"
         id="path3372" />
    </marker>
    <marker
       style="overflow:visible"
       id="Arrow1Mend"
       refX="0"
       refY="0"
       orient="auto"
       inkscape:stockid="Arrow1Mend"
       inkscape:isstock="true">
      <path
         transform="matrix(-0.4,0,0,-0.4,-4,0)"
         style="fill:context-stroke;fill-rule:evenodd;stroke:context-stroke;stroke-width:1pt"
         d="M 0,0 5,-5 -12.5,0 5,5 Z"
         id="path3366" />
    </marker>
    <marker
       style="overflow:visible"
       id="Arrow1Lend"
       refX="0"
       refY="0"
       orient="auto"
       inkscape:stockid="Arrow1Lend"
       inkscape:isstock="true">
      <path
         transform="matrix(-0.8,0,0,-0.8,-10,0)"
         style="fill:context-stroke;fill-rule:evenodd;stroke:context-stroke;stroke-width:1pt"
         d="M 0,0 5,-5 -12.5,0 5,5 Z"
         id="path3360" />
    </marker>
  </defs>
  <g
     inkscape:label="Layer 1"
     inkscape:groupmode="layer"
     id="layer1"
     transform="translate(-61.5051,-120.94215)">
    <rect
       style="fill:#fefefe;fill-opacity:1;stroke:#6c3b00;stroke-width:2;stroke-linejoin:round;stroke-miterlimit:4;stroke-dasharray:none;stroke-opacity:1;paint-order:markers stroke fill"
       id="rect910"
       width="19.4"
       height="19.4"
       x="62.5051"
       y="121.94215"
       ry="3.69628" />
    <ellipse
       style="fill:#a05601;fill-opacity:1;stroke:none;stroke-width:1;stroke-linecap:round;stroke-linejoin:round"
       id="path6442"
       cx="72.492371"
       cy="132.44345"
       rx="3.5"
       ry="3.5000002" />
    <path
       id="path850"
       style="fill:none;fill-opacity:1;stroke:#000000;stroke-width:1;stroke-linecap:butt;stroke-linejoin:miter;stroke-miterlimit:4;stroke-dasharray:none;stroke-opacity:1"
       d="m 63.989365,133.37293 c 2.859194,-2.59195 4.668666,2.58659 8.479962,2.40117 3.811297,-0.18541 3.643076,-5.8362 8.980445,-5.37431 m -17.460407,2.97314 c 0,0 3.10232,-3.53621 7.955052,-3.92927 4.313046,-0.34934 9.505355,0.95613 9.505355,0.95613" />
    <circle
       style="fill:#000000;fill-opacity:1;stroke:none;stroke-width:0.999998;stroke-linejoin:round;stroke-miterlimit:4;stroke-dasharray:none;paint-order:markers stroke fill"
       id="path3180"
       cx="72.492371"
       cy="132.44345"
       r="1" />
    <path
       id="path1971"
       style="fill:none;stroke:#000000;stroke-width:1;stroke-linecap:round;stroke-linejoin:round;stroke-miterlimit:4;stroke-dasharray:none;stroke-opacity:1"
       d="m 63.229511,129.77979 c 0,0 2.593716,-2.62584 8.472353,-3.74742 5.878637,-1.12158 9.41942,-0.47225 9.41942,-0.47225 l -2.613871,-1.8694 m 2.613871,1.8694 -2.784277,1.57236"
       sodipodi:nodetypes="czcccc" />
    <g
       aria-label="librecounter.org"
       id="text3844"
       style="font-size:2.46944px;line-height:1.25;font-family:'Noto Sans';-inkscape-font-specification:'Noto Sans, Normal';stroke-width:0.264583"
       transform="translate(-0.0870821,-0.41375096)">
      <path
         d="m 63.595617,139.18219 h -0.217311 v -1.87677 h 0.217311 z"
         id="path26735" />
      <path
         d="m 64.126545,137.36221 q 0.04939,0 0.08643,0.0346 0.03951,0.0321 0.03951,0.10372 0,0.0692 -0.03951,0.10372 -0.03704,0.0346 -0.08643,0.0346 -0.05433,0 -0.09137,-0.0346 -0.03704,-0.0346 -0.03704,-0.10372 0,-0.0716 0.03704,-0.10372 0.03704,-0.0346 0.09137,-0.0346 z m 0.106186,0.49636 v 1.32362 H 64.01542 v -1.32362 z"
         id="path26737" />
      <path
         d="m 64.869845,137.76226 q 0,0.084 -0.0049,0.15805 -0.0025,0.0716 -0.0074,0.11359 h 0.01235 q 0.0568,-0.084 0.155575,-0.14076 0.09878,-0.0568 0.254352,-0.0568 0.246944,0 0.39511,0.17286 0.150636,0.17039 0.150636,0.51117 0,0.34078 -0.150636,0.51364 -0.150635,0.17286 -0.39511,0.17286 -0.155575,0 -0.254352,-0.0568 -0.09878,-0.0568 -0.155575,-0.13582 h -0.01729 l -0.04445,0.16792 H 64.65258 v -1.87677 h 0.217311 z m 0.372885,0.25435 q -0.209902,0 -0.291394,0.12101 -0.08149,0.121 -0.08149,0.37535 v 0.01 q 0,0.24447 0.07902,0.37535 0.08149,0.12842 0.298802,0.12842 0.1778,0 0.26423,-0.13089 0.0889,-0.13088 0.0889,-0.37782 0,-0.5013 -0.358069,-0.5013 z"
         id="path26739" />
      <path
         d="m 66.788599,137.83388 q 0.03704,0 0.07902,0.005 0.04445,0.002 0.07655,0.01 l -0.02716,0.20003 q -0.0321,-0.007 -0.07161,-0.0123 -0.03704,-0.005 -0.07161,-0.005 -0.101247,0 -0.190147,0.0568 -0.0889,0.0543 -0.143228,0.15557 -0.05186,0.0988 -0.05186,0.23213 v 0.70626 h -0.217311 v -1.32362 h 0.1778 l 0.02469,0.24201 h 0.0099 q 0.06421,-0.10866 0.165453,-0.18768 0.101247,-0.079 0.239535,-0.079 z"
         id="path26741" />
      <path
         d="m 67.652898,137.83388 q 0.170391,0 0.291394,0.0741 0.123472,0.0741 0.187677,0.2099 0.06668,0.13335 0.06668,0.31362 v 0.13088 h -0.906285 q 0.0049,0.22472 0.113595,0.34325 0.111124,0.11607 0.30868,0.11607 0.125941,0 0.222249,-0.0222 0.09878,-0.0247 0.202494,-0.0691 v 0.19014 q -0.101247,0.0444 -0.200024,0.0642 -0.09878,0.0222 -0.234597,0.0222 -0.187678,0 -0.333375,-0.0766 -0.143227,-0.0765 -0.224719,-0.22719 -0.07902,-0.1531 -0.07902,-0.37288 0,-0.21731 0.07161,-0.37289 0.07408,-0.15557 0.204964,-0.23953 0.133349,-0.084 0.30868,-0.084 z m -0.0025,0.1778 q -0.155575,0 -0.246944,0.10124 -0.0889,0.0988 -0.106186,0.27658 h 0.674157 q -0.0025,-0.16792 -0.07902,-0.27164 -0.07655,-0.10618 -0.242005,-0.10618 z"
         id="path26743" />
      <path
         d="m 69.065415,139.20688 q -0.17533,0 -0.313619,-0.0716 -0.135819,-0.0716 -0.214841,-0.22225 -0.07655,-0.15063 -0.07655,-0.38523 0,-0.24448 0.08149,-0.39758 0.08149,-0.15311 0.21978,-0.22472 0.140758,-0.0716 0.318558,-0.0716 0.101247,0 0.195085,0.0222 0.09384,0.0198 0.153106,0.0494 l -0.06667,0.18027 q -0.05927,-0.0222 -0.138289,-0.042 -0.07902,-0.0198 -0.148166,-0.0198 -0.390172,0 -0.390172,0.5013 0,0.23953 0.09384,0.36795 0.09631,0.12594 0.283986,0.12594 0.108655,0 0.190146,-0.0222 0.08396,-0.0222 0.153106,-0.0543 v 0.19262 q -0.06668,0.0346 -0.148167,0.0519 -0.07902,0.0198 -0.192616,0.0198 z"
         id="path26745" />
      <path
         d="m 70.870575,138.51791 q 0,0.32844 -0.167922,0.50871 -0.165453,0.18026 -0.449438,0.18026 -0.17533,0 -0.313619,-0.079 -0.135819,-0.0815 -0.214841,-0.23459 -0.07902,-0.15558 -0.07902,-0.37536 0,-0.32843 0.165452,-0.50623 0.165453,-0.1778 0.449438,-0.1778 0.180269,0 0.316089,0.0815 0.138288,0.079 0.214841,0.23212 0.07902,0.15064 0.07902,0.37042 z m -1.000123,0 q 0,0.2346 0.09137,0.37289 0.09384,0.13582 0.296333,0.13582 0.200024,0 0.293863,-0.13582 0.09384,-0.13829 0.09384,-0.37289 0,-0.2346 -0.09384,-0.36795 -0.09384,-0.13335 -0.296333,-0.13335 -0.202494,0 -0.293863,0.13335 -0.09137,0.13335 -0.09137,0.36795 z"
         id="path26747" />
      <path
         d="m 72.320135,137.85857 v 1.32362 h -0.1778 l -0.0321,-0.17533 h -0.0099 q -0.06421,0.10372 -0.1778,0.1531 -0.113594,0.0469 -0.242005,0.0469 -0.239536,0 -0.360538,-0.11359 -0.121003,-0.11606 -0.121003,-0.36795 v -0.86677 h 0.21978 v 0.85196 q 0,0.31609 0.293864,0.31609 0.21978,0 0.303741,-0.12348 0.08643,-0.12347 0.08643,-0.3556 v -0.68897 z"
         id="path26749" />
      <path
         d="m 73.37705,137.83388 q 0.237066,0 0.358069,0.11606 0.121002,0.11359 0.121002,0.37042 v 0.86183 H 73.64128 v -0.84702 q 0,-0.31856 -0.296333,-0.31856 -0.21978,0 -0.303741,0.12348 -0.08396,0.12347 -0.08396,0.3556 v 0.6865 h -0.21731 v -1.32362 h 0.17533 l 0.0321,0.18027 h 0.01235 q 0.06421,-0.10372 0.177799,-0.15311 0.113595,-0.0519 0.239536,-0.0519 z"
         id="path26751" />
      <path
         d="m 74.708074,139.02908 q 0.04939,0 0.101247,-0.007 0.05186,-0.01 0.08396,-0.0198 v 0.16545 q -0.03457,0.0173 -0.09878,0.0272 -0.06421,0.0123 -0.123472,0.0123 -0.103716,0 -0.192616,-0.0346 -0.08643,-0.037 -0.140758,-0.12594 -0.05433,-0.0889 -0.05433,-0.24941 v -0.77047 h -0.187677 v -0.10371 l 0.190147,-0.0864 0.08643,-0.28152 h 0.128411 v 0.30374 h 0.382763 v 0.16792 h -0.382763 v 0.76553 q 0,0.121 0.0568,0.18027 0.05927,0.0568 0.150636,0.0568 z"
         id="path26753" />
      <path
         d="m 75.668682,137.83388 q 0.170391,0 0.291394,0.0741 0.123472,0.0741 0.187677,0.2099 0.06668,0.13335 0.06668,0.31362 v 0.13088 h -0.906285 q 0.0049,0.22472 0.113595,0.34325 0.111124,0.11607 0.30868,0.11607 0.125941,0 0.222249,-0.0222 0.09878,-0.0247 0.202494,-0.0691 v 0.19014 q -0.101247,0.0444 -0.200024,0.0642 -0.09878,0.0222 -0.234597,0.0222 -0.187678,0 -0.333375,-0.0766 -0.143227,-0.0765 -0.224719,-0.22719 -0.07902,-0.1531 -0.07902,-0.37288 0,-0.21731 0.07161,-0.37289 0.07408,-0.15557 0.204964,-0.23953 0.133349,-0.084 0.30868,-0.084 z m -0.0025,0.1778 q -0.155575,0 -0.246944,0.10124 -0.0889,0.0988 -0.106186,0.27658 h 0.674157 q -0.0025,-0.16792 -0.07902,-0.27164 -0.07655,-0.10618 -0.242005,-0.10618 z"
         id="path26755" />
      <path
         d="m 77.16763,137.83388 q 0.03704,0 0.07902,0.005 0.04445,0.002 0.07655,0.01 l -0.02716,0.20003 q -0.0321,-0.007 -0.07161,-0.0123 -0.03704,-0.005 -0.07161,-0.005 -0.101247,0 -0.190147,0.0568 -0.0889,0.0543 -0.143227,0.15557 -0.05186,0.0988 -0.05186,0.23213 v 0.70626 h -0.21731 v -1.32362 h 0.177799 l 0.02469,0.24201 h 0.0099 q 0.06421,-0.10866 0.165452,-0.18768 0.101247,-0.079 0.239536,-0.079 z"
         id="path26757" />
      <path
         d="m 77.142927,139.04884 q 0,-0.0914 0.04445,-0.12841 0.04445,-0.037 0.106186,-0.037 0.0642,0 0.108655,0.037 0.04692,0.037 0.04692,0.12841 0,0.0889 -0.04692,0.12841 -0.04445,0.0395 -0.108655,0.0395 -0.06174,0 -0.106186,-0.0395 -0.04445,-0.0395 -0.04445,-0.12841 z"
         id="path26759" />
      <path
         d="m 78.987597,138.51791 q 0,0.32844 -0.167922,0.50871 -0.165452,0.18026 -0.449438,0.18026 -0.17533,0 -0.313618,-0.079 -0.13582,-0.0815 -0.214842,-0.23459 -0.07902,-0.15558 -0.07902,-0.37536 0,-0.32843 0.165453,-0.50623 0.165452,-0.1778 0.449438,-0.1778 0.180269,0 0.316088,0.0815 0.138289,0.079 0.214841,0.23212 0.07902,0.15064 0.07902,0.37042 z m -1.000123,0 q 0,0.2346 0.09137,0.37289 0.09384,0.13582 0.296333,0.13582 0.200025,0 0.293864,-0.13582 0.09384,-0.13829 0.09384,-0.37289 0,-0.2346 -0.09384,-0.36795 -0.09384,-0.13335 -0.296333,-0.13335 -0.202494,0 -0.293864,0.13335 -0.09137,0.13335 -0.09137,0.36795 z"
         id="path26761" />
      <path
         d="m 79.948208,137.83388 q 0.03704,0 0.07902,0.005 0.04445,0.002 0.07655,0.01 l -0.02716,0.20003 q -0.0321,-0.007 -0.07161,-0.0123 -0.03704,-0.005 -0.07161,-0.005 -0.101247,0 -0.190147,0.0568 -0.0889,0.0543 -0.143228,0.15557 -0.05186,0.0988 -0.05186,0.23213 v 0.70626 h -0.217311 v -1.32362 h 0.1778 l 0.02469,0.24201 h 0.0099 q 0.06421,-0.10866 0.165453,-0.18768 0.101247,-0.079 0.239535,-0.079 z"
         id="path26763" />
      <path
         d="m 80.795221,137.83388 q 0.13088,0 0.234597,0.0494 0.106186,0.0494 0.180269,0.15064 h 0.01235 l 0.02963,-0.17533 h 0.172861 v 1.34584 q 0,0.28399 -0.145697,0.42722 -0.143227,0.14323 -0.446968,0.14323 -0.291394,0 -0.476602,-0.084 v -0.20002 q 0.195086,0.10372 0.488949,0.10372 0.170391,0 0.266699,-0.10125 0.09878,-0.0988 0.09878,-0.27164 v -0.0519 q 0,-0.0296 0.0025,-0.084 0.0025,-0.0568 0.0049,-0.079 h -0.0099 q -0.13335,0.20002 -0.409927,0.20002 -0.256822,0 -0.402519,-0.18026 -0.143228,-0.18027 -0.143228,-0.50377 0,-0.31609 0.143228,-0.5013 0.145697,-0.18767 0.400049,-0.18767 z m 0.02963,0.18273 q -0.165452,0 -0.256821,0.13335 -0.09137,0.13088 -0.09137,0.37536 0,0.24447 0.0889,0.37535 0.09137,0.12841 0.26423,0.12841 0.200025,0 0.291394,-0.10618 0.09137,-0.10866 0.09137,-0.34819 v -0.0519 q 0,-0.27164 -0.09384,-0.3877 -0.09384,-0.11854 -0.293864,-0.11854 z"
         id="path26765" />
    </g>
  </g>
</svg>
