<?xml version="1.0" encoding="UTF-8" standalone="no"?>
<!-- Created with Inkscape (http://www.inkscape.org/) -->

<svg
   width="21.4mm"
   height="21.4mm"
   viewBox="0 0 21.4 21.4"
   version="1.1"
   id="svg827"
   inkscape:version="1.1.2 (0a00cf5339, 2022-02-04)"
   sodipodi:docname="librecounter.svg"
   xmlns:inkscape="http://www.inkscape.org/namespaces/inkscape"
   xmlns:sodipodi="http://sodipodi.sourceforge.net/DTD/sodipodi-0.dtd"
   xmlns="http://www.w3.org/2000/svg"
   xmlns:svg="http://www.w3.org/2000/svg">
  <sodipodi:namedview
     id="namedview829"
     pagecolor="#c3c3c3"
     bordercolor="#eeeeee"
     borderopacity="1"
     inkscape:pageshadow="0"
     inkscape:pageopacity="0"
     inkscape:pagecheckerboard="0"
     inkscape:document-units="mm"
     showgrid="false"
     inkscape:zoom="11.458793"
     inkscape:cx="100.83959"
     inkscape:cy="40.449286"
     inkscape:window-width="3840"
     inkscape:window-height="2075"
     inkscape:window-x="0"
     inkscape:window-y="0"
     inkscape:window-maximized="1"
     inkscape:current-layer="layer1"
     fit-margin-top="0"
     fit-margin-left="0"
     fit-margin-right="0"
     fit-margin-bottom="0" />
  <defs
     id="defs824">
    <marker
       style="overflow:visible"
       id="Arrow1Send"
       refX="0"
       refY="0"
       orient="auto"
       inkscape:stockid="Arrow1Send"
       inkscape:isstock="true">
      <path
         transform="matrix(-0.2,0,0,-0.2,-1.2,0)"
         style="fill:context-stroke;fill-rule:evenodd;stroke:context-stroke;stroke-width:1pt"
         d="M 0,0 5,-5 -12.5,0 5,5 Z"
         id="path3372" />
    </marker>
    <marker
       style="overflow:visible"
       id="Arrow1Mend"
       refX="0"
       refY="0"
       orient="auto"
       inkscape:stockid="Arrow1Mend"
       inkscape:isstock="true">
      <path
         transform="matrix(-0.4,0,0,-0.4,-4,0)"
         style="fill:context-stroke;fill-rule:evenodd;stroke:context-stroke;stroke-width:1pt"
         d="M 0,0 5,-5 -12.5,0 5,5 Z"
         id="path3366" />
    </marker>
    <marker
       style="overflow:visible"
       id="Arrow1Lend"
       refX="0"
       refY="0"
       orient="auto"
       inkscape:stockid="Arrow1Lend"
       inkscape:isstock="true">
      <path
         transform="matrix(-0.8,0,0,-0.8,-10,0)"
         style="fill:context-stroke;fill-rule:evenodd;stroke:context-stroke;stroke-width:1pt"
         d="M 0,0 5,-5 -12.5,0 5,5 Z"
         id="path3360" />
    </marker>
  </defs>
  <g
     inkscape:label="Layer 1"
     inkscape:groupmode="layer"
     id="layer1"
     transform="translate(-61.5051,-120.94215)">
    <rect
       style="fill:#fefefe;fill-opacity:1;stroke:#6c3b00;stroke-width:2;stroke-linejoin:round;stroke-miterlimit:4;stroke-dasharray:none;stroke-opacity:1;paint-order:markers stroke fill"
       id="rect910"
       width="19.4"
       height="19.4"
       x="62.5051"
       y="121.94215"
       ry="3.69628" />
    <ellipse
       style="fill:#a05601;fill-opacity:1;stroke:none;stroke-width:1;stroke-linecap:round;stroke-linejoin:round"
       id="path6442"
       cx="72.469666"
       cy="133.17661"
       rx="3.5"
       ry="3.5000002" />
    <path
       id="path850"
       style="fill:none;fill-opacity:1;stroke:#000000;stroke-width:1;stroke-linecap:butt;stroke-linejoin:miter;stroke-miterlimit:4;stroke-dasharray:none;stroke-opacity:1"
       d="m 63.966662,134.1061 c 2.859194,-2.59195 4.668666,2.58659 8.479962,2.40117 3.811297,-0.18541 3.643076,-5.8362 8.980445,-5.37431 m -17.460407,2.97314 c 0,0 3.10232,-3.53621 7.955052,-3.92927 4.313046,-0.34934 9.505355,0.95613 9.505355,0.95613" />
    <circle
       style="fill:#000000;fill-opacity:1;stroke:none;stroke-width:0.999998;stroke-linejoin:round;stroke-miterlimit:4;stroke-dasharray:none;paint-order:markers stroke fill"
       id="path3180"
       cx="72.469666"
       cy="133.17661"
       r="1" />
    <path
       id="path1971"
       style="fill:none;stroke:#000000;stroke-width:1;stroke-linecap:round;stroke-linejoin:round;stroke-miterlimit:4;stroke-dasharray:none;stroke-opacity:1"
       d="m 63.206808,130.51296 c 0,0 2.593716,-2.62584 8.472353,-3.74742 5.878637,-1.12158 9.511529,-0.74474 9.511529,-0.74474 l -2.70598,-1.59691 m 2.70598,1.59691 -2.876386,1.84485"
       sodipodi:nodetypes="czcccc" />
    <g
       aria-label="librecounter.org"
       id="text3844"
       style="font-size:2.11667px;line-height:1.25;stroke-width:0.264583">
      <path
         d="M 64.960827,139.93459 H 64.77456 v -1.60867 h 0.186267 z"
         style="font-family:'Noto Sans';-inkscape-font-specification:'Noto Sans, Normal'"
         id="path23804" />
      <path
         d="m 65.415909,138.3746 q 0.04233,0 0.07408,0.0296 0.03387,0.0275 0.03387,0.0889 0,0.0593 -0.03387,0.0889 -0.03175,0.0296 -0.07408,0.0296 -0.04657,0 -0.07832,-0.0296 -0.03175,-0.0296 -0.03175,-0.0889 0,-0.0614 0.03175,-0.0889 0.03175,-0.0296 0.07832,-0.0296 z m 0.09102,0.42545 v 1.13454 h -0.186267 v -1.13454 z"
         style="font-family:'Noto Sans';-inkscape-font-specification:'Noto Sans, Normal'"
         id="path23806" />
      <path
         d="m 66.053026,138.7175 q 0,0.072 -0.0042,0.13547 -0.0021,0.0614 -0.0064,0.0974 h 0.01058 q 0.04868,-0.072 0.13335,-0.12065 0.08467,-0.0487 0.218017,-0.0487 0.211667,0 0.338667,0.14817 0.129117,0.14605 0.129117,0.43815 0,0.2921 -0.129117,0.44027 -0.129117,0.14816 -0.338667,0.14816 -0.13335,0 -0.218017,-0.0487 -0.08467,-0.0487 -0.13335,-0.11642 h -0.01482 l -0.0381,0.14394 h -0.13335 v -1.60867 h 0.186267 z m 0.319617,0.21802 q -0.179917,0 -0.249767,0.10371 -0.06985,0.10372 -0.06985,0.32174 v 0.008 q 0,0.20956 0.06773,0.32174 0.06985,0.11007 0.256117,0.11007 0.1524,0 0.226484,-0.11219 0.0762,-0.11218 0.0762,-0.32385 0,-0.42968 -0.306917,-0.42968 z"
         style="font-family:'Noto Sans';-inkscape-font-specification:'Noto Sans, Normal'"
         id="path23808" />
      <path
         d="m 67.697678,138.77888 q 0.03175,0 0.06773,0.004 0.0381,0.002 0.06562,0.008 l -0.02328,0.17145 q -0.02752,-0.006 -0.06138,-0.0106 -0.03175,-0.004 -0.06138,-0.004 -0.08678,0 -0.162984,0.0487 -0.0762,0.0466 -0.122767,0.13335 -0.04445,0.0847 -0.04445,0.19897 v 0.60537 H 67.16851 v -1.13454 h 0.152401 l 0.02117,0.20743 h 0.0085 q 0.05503,-0.0931 0.141817,-0.16086 0.08678,-0.0677 0.205317,-0.0677 z"
         style="font-family:'Noto Sans';-inkscape-font-specification:'Noto Sans, Normal'"
         id="path23810" />
      <path
         d="m 68.438507,138.77888 q 0.146051,0 0.249767,0.0635 0.105834,0.0635 0.160867,0.17992 0.05715,0.1143 0.05715,0.26882 v 0.11218 h -0.776817 q 0.0042,0.19262 0.09737,0.29422 0.09525,0.0995 0.264584,0.0995 0.10795,0 0.1905,-0.019 0.08467,-0.0212 0.173567,-0.0593 v 0.16298 q -0.08678,0.0381 -0.17145,0.055 -0.08467,0.019 -0.201084,0.019 -0.160866,0 -0.28575,-0.0656 -0.122767,-0.0656 -0.192617,-0.19474 -0.06773,-0.13123 -0.06773,-0.31962 0,-0.18626 0.06138,-0.31961 0.0635,-0.13335 0.175684,-0.20532 0.1143,-0.072 0.264583,-0.072 z m -0.0021,0.1524 q -0.13335,0 -0.211667,0.0868 -0.0762,0.0847 -0.09102,0.23706 h 0.577851 q -0.0021,-0.14393 -0.06773,-0.23283 -0.06562,-0.091 -0.207433,-0.091 z"
         style="font-family:'Noto Sans';-inkscape-font-specification:'Noto Sans, Normal'"
         id="path23812" />
      <path
         d="m 69.649241,139.95575 q -0.150284,0 -0.268817,-0.0614 -0.116417,-0.0614 -0.184151,-0.1905 -0.06562,-0.12912 -0.06562,-0.3302 0,-0.20955 0.06985,-0.34079 0.06985,-0.13123 0.188383,-0.19261 0.120651,-0.0614 0.273051,-0.0614 0.08678,0 0.167217,0.0191 0.08043,0.0169 0.131233,0.0423 l -0.05715,0.15451 q -0.0508,-0.019 -0.118533,-0.036 -0.06773,-0.0169 -0.127001,-0.0169 -0.334433,0 -0.334433,0.42968 0,0.20532 0.08043,0.31539 0.08255,0.10795 0.243417,0.10795 0.09313,0 0.162984,-0.0191 0.07197,-0.019 0.131233,-0.0466 v 0.1651 q -0.05715,0.0296 -0.127,0.0444 -0.06773,0.0169 -0.1651,0.0169 z"
         style="font-family:'Noto Sans';-inkscape-font-specification:'Noto Sans, Normal'"
         id="path23814" />
      <path
         d="m 71.196526,139.3652 q 0,0.28152 -0.143934,0.43604 -0.141817,0.15451 -0.385234,0.15451 -0.150283,0 -0.268817,-0.0677 -0.116417,-0.0699 -0.18415,-0.20108 -0.06773,-0.13336 -0.06773,-0.32174 0,-0.28152 0.141817,-0.43392 0.141817,-0.1524 0.385234,-0.1524 0.154517,0 0.270934,0.0699 0.118533,0.0677 0.18415,0.19897 0.06773,0.12912 0.06773,0.3175 z m -0.857252,0 q 0,0.20109 0.07832,0.31962 0.08043,0.11642 0.254001,0.11642 0.17145,0 0.251883,-0.11642 0.08043,-0.11853 0.08043,-0.31962 0,-0.20108 -0.08043,-0.31538 -0.08043,-0.1143 -0.254,-0.1143 -0.173567,0 -0.251884,0.1143 -0.07832,0.1143 -0.07832,0.31538 z"
         style="font-family:'Noto Sans';-inkscape-font-specification:'Noto Sans, Normal'"
         id="path23816" />
      <path
         d="m 72.43901,138.80005 v 1.13454 h -0.1524 l -0.02752,-0.15029 h -0.0085 q -0.05503,0.0889 -0.1524,0.13124 -0.09737,0.0402 -0.207434,0.0402 -0.205317,0 -0.309033,-0.0974 -0.103717,-0.0995 -0.103717,-0.31539 v -0.74295 h 0.188383 v 0.73025 q 0,0.27094 0.251884,0.27094 0.188384,0 0.260351,-0.10584 0.07408,-0.10583 0.07408,-0.3048 v -0.59055 z"
         style="font-family:'Noto Sans';-inkscape-font-specification:'Noto Sans, Normal'"
         id="path23818" />
      <path
         d="m 73.344941,138.77888 q 0.2032,0 0.306917,0.0995 0.103717,0.0974 0.103717,0.3175 v 0.73872 h -0.18415 v -0.72602 q 0,-0.27305 -0.254001,-0.27305 -0.188383,0 -0.26035,0.10583 -0.07197,0.10583 -0.07197,0.3048 v 0.58844 H 72.79884 v -1.13454 h 0.150284 l 0.02752,0.15452 h 0.01058 q 0.05503,-0.0889 0.1524,-0.13124 0.09737,-0.0445 0.205317,-0.0445 z"
         style="font-family:'Noto Sans';-inkscape-font-specification:'Noto Sans, Normal'"
         id="path23820" />
      <path
         d="m 74.485822,139.80335 q 0.04233,0 0.08678,-0.006 0.04445,-0.008 0.07197,-0.0169 v 0.14182 q -0.02963,0.0148 -0.08467,0.0233 -0.05503,0.0106 -0.105833,0.0106 -0.0889,0 -0.1651,-0.0296 -0.07408,-0.0317 -0.120651,-0.10795 -0.04657,-0.0762 -0.04657,-0.21378 v -0.66041 h -0.160867 v -0.0889 l 0.162983,-0.0741 0.07408,-0.2413 h 0.110067 v 0.26035 h 0.328083 v 0.14393 h -0.328083 v 0.65617 q 0,0.10372 0.04868,0.15452 0.0508,0.0487 0.129117,0.0487 z"
         style="font-family:'Noto Sans';-inkscape-font-specification:'Noto Sans, Normal'"
         id="path23822" />
      <path
         d="m 75.309203,138.77888 q 0.14605,0 0.249767,0.0635 0.105834,0.0635 0.160867,0.17992 0.05715,0.1143 0.05715,0.26882 v 0.11218 h -0.776818 q 0.0042,0.19262 0.09737,0.29422 0.09525,0.0995 0.264584,0.0995 0.10795,0 0.1905,-0.019 0.08467,-0.0212 0.173567,-0.0593 v 0.16298 q -0.08678,0.0381 -0.17145,0.055 -0.08467,0.019 -0.201084,0.019 -0.160867,0 -0.28575,-0.0656 -0.122767,-0.0656 -0.192617,-0.19474 -0.06773,-0.13123 -0.06773,-0.31962 0,-0.18626 0.06138,-0.31961 0.0635,-0.13335 0.175683,-0.20532 0.1143,-0.072 0.264584,-0.072 z m -0.0021,0.1524 q -0.13335,0 -0.211667,0.0868 -0.0762,0.0847 -0.09102,0.23706 h 0.57785 q -0.0021,-0.14393 -0.06773,-0.23283 -0.06562,-0.091 -0.207434,-0.091 z"
         style="font-family:'Noto Sans';-inkscape-font-specification:'Noto Sans, Normal'"
         id="path23824" />
      <path
         d="m 76.59402,138.77888 q 0.03175,0 0.06773,0.004 0.0381,0.002 0.06562,0.008 l -0.02328,0.17145 q -0.02752,-0.006 -0.06138,-0.0106 -0.03175,-0.004 -0.06138,-0.004 -0.08678,0 -0.162984,0.0487 -0.0762,0.0466 -0.122767,0.13335 -0.04445,0.0847 -0.04445,0.19897 v 0.60537 h -0.186267 v -1.13454 h 0.152401 l 0.02117,0.20743 h 0.0085 q 0.05503,-0.0931 0.141817,-0.16086 0.08678,-0.0677 0.205317,-0.0677 z"
         style="font-family:'Noto Sans';-inkscape-font-specification:'Noto Sans, Normal'"
         id="path23826" />
      <path
         d="m 76.572845,139.82029 q 0,-0.0783 0.0381,-0.11007 0.0381,-0.0317 0.09102,-0.0317 0.05503,0 0.09313,0.0317 0.04022,0.0318 0.04022,0.11007 0,0.0762 -0.04022,0.11006 -0.0381,0.0339 -0.09313,0.0339 -0.05292,0 -0.09102,-0.0339 -0.0381,-0.0339 -0.0381,-0.11006 z"
         style="font-family:'Noto Sans';-inkscape-font-specification:'Noto Sans, Normal'"
         id="path23828" />
      <path
         d="m 78.153997,139.3652 q 0,0.28152 -0.143934,0.43604 -0.141816,0.15451 -0.385233,0.15451 -0.150284,0 -0.268818,-0.0677 -0.116416,-0.0699 -0.18415,-0.20108 -0.06773,-0.13336 -0.06773,-0.32174 0,-0.28152 0.141817,-0.43392 0.141817,-0.1524 0.385234,-0.1524 0.154516,0 0.270933,0.0699 0.118534,0.0677 0.184151,0.19897 0.06773,0.12912 0.06773,0.3175 z m -0.857251,0 q 0,0.20109 0.07832,0.31962 0.08043,0.11642 0.254001,0.11642 0.17145,0 0.251884,-0.11642 0.08043,-0.11853 0.08043,-0.31962 0,-0.20108 -0.08043,-0.31538 -0.08043,-0.1143 -0.254001,-0.1143 -0.173567,0 -0.251884,0.1143 -0.07832,0.1143 -0.07832,0.31538 z"
         style="font-family:'Noto Sans';-inkscape-font-specification:'Noto Sans, Normal'"
         id="path23830" />
      <path
         d="m 78.977381,138.77888 q 0.03175,0 0.06773,0.004 0.0381,0.002 0.06562,0.008 l -0.02328,0.17145 q -0.02752,-0.006 -0.06138,-0.0106 -0.03175,-0.004 -0.06138,-0.004 -0.08678,0 -0.162984,0.0487 -0.0762,0.0466 -0.122767,0.13335 -0.04445,0.0847 -0.04445,0.19897 v 0.60537 h -0.186267 v -1.13454 h 0.1524 l 0.02117,0.20743 h 0.0085 q 0.05503,-0.0931 0.141817,-0.16086 0.08678,-0.0677 0.205317,-0.0677 z"
         style="font-family:'Noto Sans';-inkscape-font-specification:'Noto Sans, Normal'"
         id="path23832" />
      <path
         d="m 79.703394,138.77888 q 0.112183,0 0.201083,0.0423 0.09102,0.0423 0.154517,0.12911 h 0.01058 l 0.0254,-0.15028 h 0.148167 v 1.15359 q 0,0.24341 -0.124883,0.36618 -0.122767,0.12277 -0.383117,0.12277 -0.249767,0 -0.408518,-0.072 v -0.17145 q 0.167217,0.0889 0.419101,0.0889 0.14605,0 0.2286,-0.0868 0.08467,-0.0847 0.08467,-0.23284 v -0.0444 q 0,-0.0254 0.0021,-0.072 0.0021,-0.0487 0.0042,-0.0677 h -0.0085 q -0.1143,0.17145 -0.351367,0.17145 -0.220133,0 -0.345017,-0.15451 -0.122767,-0.15452 -0.122767,-0.43181 0,-0.27093 0.122767,-0.42968 0.124884,-0.16087 0.342901,-0.16087 z m 0.0254,0.15664 q -0.141817,0 -0.220134,0.1143 -0.07832,0.11218 -0.07832,0.32173 0,0.20955 0.0762,0.32174 0.07832,0.11006 0.226484,0.11006 0.17145,0 0.249767,-0.091 0.07832,-0.0931 0.07832,-0.29846 v -0.0445 q 0,-0.23283 -0.08043,-0.33231 -0.08043,-0.1016 -0.251883,-0.1016 z"
         style="font-family:'Noto Sans';-inkscape-font-specification:'Noto Sans, Normal'"
         id="path23834" />
    </g>
  </g>
</svg>
