<?xml version="1.0" encoding="UTF-8" standalone="no"?>
<!-- Created with Inkscape (http://www.inkscape.org/) -->

<svg
   width="210mm"
   height="297mm"
   viewBox="0 0 210 297"
   version="1.1"
   id="svg827"
   xmlns="http://www.w3.org/2000/svg"
   xmlns:svg="http://www.w3.org/2000/svg">
  <defs
     id="defs824">
    <marker
       style="overflow:visible;"
       id="Arrow1Send"
       refX="0.0"
       refY="0.0"
       orient="auto">
      <path
         transform="scale(0.2) rotate(180) translate(6,0)"
         style="fill-rule:evenodd;fill:context-stroke;stroke:context-stroke;stroke-width:1.0pt;"
         d="M 0.0,0.0 L 5.0,-5.0 L -12.5,0.0 L 5.0,5.0 L 0.0,0.0 z "
         id="path3372" />
    </marker>
    <marker
       style="overflow:visible;"
       id="Arrow1Mend"
       refX="0.0"
       refY="0.0"
       orient="auto">
      <path
         transform="scale(0.4) rotate(180) translate(10,0)"
         style="fill-rule:evenodd;fill:context-stroke;stroke:context-stroke;stroke-width:1.0pt;"
         d="M 0.0,0.0 L 5.0,-5.0 L -12.5,0.0 L 5.0,5.0 L 0.0,0.0 z "
         id="path3366" />
    </marker>
    <marker
       style="overflow:visible;"
       id="Arrow1Lend"
       refX="0.0"
       refY="0.0"
       orient="auto">
      <path
         transform="scale(0.8) rotate(180) translate(12.5,0)"
         style="fill-rule:evenodd;fill:context-stroke;stroke:context-stroke;stroke-width:1.0pt;"
         d="M 0.0,0.0 L 5.0,-5.0 L -12.5,0.0 L 5.0,5.0 L 0.0,0.0 z "
         id="path3360" />
    </marker>
  </defs>
  <g
     id="layer1">
    <rect
       style="fill:#fefefe;stroke:#e01670;stroke-width:1;stroke-linejoin:round;paint-order:markers stroke fill;fill-opacity:1;stroke-miterlimit:4;stroke-dasharray:none"
       id="rect910"
       width="19.4"
       height="19.4"
       x="62.5051"
       y="121.94215"
       ry="3.69628" />
    <path
       style="fill:none;stroke:#000000;stroke-width:1;stroke-linecap:round;stroke-linejoin:round;stroke-miterlimit:4;stroke-dasharray:none;stroke-opacity:1"
       d="m 63.553792,137.03075 c 0,0 -0.922628,-2.18974 3.269471,-6.18325 4.192101,-3.99352 14.244003,-5.45485 14.244003,-5.45485 l -4.635157,-1.12268"
       id="path1201" />
    <path
       style="fill:none;stroke:#000000;stroke-width:1;stroke-linecap:butt;stroke-linejoin:miter;stroke-opacity:1;stroke-miterlimit:4;stroke-dasharray:none"
       d="m 64.861083,133.09936 c 2.729748,2.41054 4.711733,3.94732 8.496855,2.64885 3.785123,-1.29847 4.272485,-5.46269 3.776705,-9.5836"
       id="path1316" />
    <ellipse
       style="fill:#fefefe;fill-opacity:1;stroke:#e01670;stroke-width:0.999998;stroke-linejoin:round;stroke-miterlimit:4;stroke-dasharray:none;paint-order:markers stroke fill"
       id="path3180"
       cx="71.800514"
       cy="131.87776"
       rx="0.5"
       ry="0.50000101" />
    <path
       style="fill:none;stroke:#000000;stroke-width:1;stroke-linecap:round;stroke-linejoin:round;stroke-miterlimit:4;stroke-dasharray:none;stroke-opacity:1;paint-order:normal"
       d="m 63.553792,137.03075 c 0,0 -0.922628,-2.18974 3.269471,-6.18325 4.192101,-3.99352 14.244003,-5.45485 14.244003,-5.45485 l -2.67097,3.34875"
       id="path6723" />
  </g>
</svg>
