<?xml version="1.0" encoding="UTF-8" standalone="no"?>
<!-- Generator: Adobe Illustrator 28.0.0, SVG Export Plug-In . SVG Version: 6.00 Build 0)  -->

<svg
   version="1.1"
   id="Capa_1"
   x="0px"
   y="0px"
   viewBox="0 0 225.5 69.1"
   style="enable-background:new 0 0 225.5 69.1;"
   xml:space="preserve"
   xmlns="http://www.w3.org/2000/svg"
   xmlns:svg="http://www.w3.org/2000/svg"><defs
   id="defs291" />
<style
   type="text/css"
   id="style250">
	.st0{fill:#FFFFFF;}
	.st1{fill:#DBAF61;}
	.st2{fill:#CC7658;}
	.st3{fill:#934147;}
	.st4{opacity:0.6;fill:#DBAF61;}
	.st5{opacity:0.6;fill:#FFFFFF;}
	.st6{opacity:0.6;fill:#CC7658;}
	.st7{opacity:0.6;fill:#934147;}
</style>
<g
   id="g286">
	<polygon
   class="st1"
   points="106.5,27.8 93.3,27.8 93.3,5.8 88.8,5.8 88.8,31.7 106.5,31.7  "
   id="polygon252" />
	<rect
   x="109.1"
   y="5.8"
   class="st1"
   width="4.1"
   height="3.9"
   id="rect254" />
	<rect
   x="109.1"
   y="13"
   class="st1"
   width="4.1"
   height="18.8"
   id="rect256" />
	<path
   class="st1"
   d="M136.5,22.4c0-1.4-0.2-2.7-0.5-3.9c-0.4-1.2-0.9-2.3-1.6-3.2c-0.7-0.9-1.6-1.6-2.7-2.1   c-1.1-0.5-2.4-0.8-3.9-0.8c-0.5,0-1.1,0.1-1.6,0.2c-0.5,0.1-1.1,0.3-1.6,0.6c-0.5,0.3-1,0.6-1.4,0.9c-0.4,0.4-0.8,0.8-1.1,1.2H122   V5.8h-4.1v25.9h3.9v-2.6h0.1c0.3,0.6,0.7,1.1,1.2,1.5c0.5,0.4,1,0.7,1.6,0.9c0.6,0.2,1.2,0.4,1.8,0.5c0.6,0.1,1.3,0.1,1.9,0.1   c1.4,0,2.6-0.3,3.6-0.8c1-0.5,1.9-1.3,2.5-2.2c0.7-0.9,1.2-2,1.5-3.1C136.3,24.9,136.5,23.7,136.5,22.4z M132.1,24.8   c-0.2,0.8-0.5,1.5-0.9,2.1c-0.4,0.6-1,1.1-1.6,1.5c-0.7,0.4-1.5,0.6-2.4,0.6c-0.8,0-1.6-0.2-2.2-0.5c-0.6-0.3-1.2-0.8-1.7-1.4   c-0.5-0.6-0.8-1.3-1-2.1c-0.2-0.8-0.3-1.7-0.3-2.6c0-2,0.4-3.6,1.3-4.8c0.9-1.2,2.2-1.8,3.9-1.8c0.8,0,1.6,0.2,2.3,0.6   c0.7,0.4,1.2,0.9,1.6,1.5c0.4,0.6,0.8,1.3,1,2.1c0.2,0.8,0.3,1.6,0.3,2.5C132.3,23.2,132.3,24,132.1,24.8z"
   id="path258" />
	<path
   class="st1"
   d="M144.1,22.8c0-1,0.1-2,0.4-2.8c0.3-0.8,0.6-1.5,1.1-2c0.5-0.5,1-1,1.6-1.2c0.6-0.3,1.3-0.4,2-0.4   c0.3,0,0.6,0,0.9,0.1c0.3,0,0.6,0.1,0.9,0.1v-4c-0.2,0-0.4,0-0.6-0.1c-0.2,0-0.5,0-1,0c-0.6,0-1.2,0.1-1.9,0.4   c-0.6,0.2-1.2,0.6-1.7,1c-0.5,0.4-0.9,0.8-1.3,1.3c-0.4,0.5-0.6,1-0.7,1.5h-0.1V13H140v18.8h4.1V22.8z"
   id="path260" />
	<path
   class="st1"
   d="M163.3,31.8c0.9-0.3,1.8-0.7,2.5-1.2c0.8-0.5,1.4-1.2,1.9-2c0.5-0.8,0.9-1.7,1.1-2.7h-3.9   c-0.4,1-0.9,1.8-1.7,2.3c-0.7,0.5-1.7,0.8-2.9,0.8c-0.9,0-1.6-0.2-2.3-0.5c-0.6-0.3-1.2-0.7-1.6-1.2c-0.4-0.5-0.7-1.1-0.9-1.8   c-0.2-0.7-0.3-1.4-0.3-2.1h13.8c0.2-1.4,0.1-2.8-0.3-4.1c-0.4-1.3-0.9-2.5-1.7-3.5c-0.8-1-1.7-1.8-2.9-2.4c-1.2-0.6-2.5-0.9-4-0.9   c-1.4,0-2.7,0.3-3.8,0.8c-1.1,0.5-2.1,1.3-2.8,2.2c-0.8,0.9-1.4,2-1.8,3.2c-0.4,1.2-0.6,2.5-0.6,3.8c0,1.5,0.2,2.8,0.6,4   c0.4,1.2,1,2.3,1.8,3.1c0.8,0.9,1.7,1.5,2.9,2c1.1,0.5,2.4,0.7,3.9,0.7C161.4,32.2,162.4,32.1,163.3,31.8z M155.7,18.7   c0.3-0.6,0.6-1.1,1-1.6c0.4-0.4,0.9-0.8,1.5-1.1c0.6-0.3,1.3-0.4,2-0.4c0.7,0,1.3,0.1,1.9,0.4c0.6,0.3,1.1,0.6,1.5,1.1   c0.4,0.4,0.7,1,0.9,1.6c0.2,0.6,0.4,1.2,0.4,1.9h-9.7C155.3,20,155.5,19.4,155.7,18.7z"
   id="path262" />
	<path
   class="st1"
   d="M105.8,56.6c-0.3,0.8-0.8,1.5-1.3,2.2c-0.6,0.6-1.2,1.1-2,1.5c-0.8,0.4-1.7,0.5-2.7,0.5   c-1.4,0-2.6-0.3-3.6-0.8c-1-0.6-1.8-1.3-2.5-2.2c-0.6-0.9-1.1-2-1.4-3.2c-0.3-1.2-0.5-2.4-0.5-3.6c0-1.2,0.2-2.4,0.5-3.6   c0.3-1.2,0.8-2.2,1.4-3.2c0.6-0.9,1.4-1.7,2.5-2.2c1-0.6,2.2-0.8,3.6-0.8c0.9,0,1.8,0.1,2.5,0.4c0.7,0.3,1.3,0.6,1.9,1.1   c0.5,0.5,1,1,1.3,1.6c0.3,0.6,0.6,1.3,0.8,2.1h4.5c-0.1-1.4-0.5-2.6-1.1-3.7c-0.6-1.1-1.4-2-2.4-2.8c-1-0.8-2.1-1.3-3.4-1.7   c-1.3-0.4-2.6-0.6-4.1-0.6c-1.9,0-3.7,0.4-5.2,1.1c-1.5,0.7-2.8,1.7-3.9,2.9c-1.1,1.2-1.9,2.7-2.4,4.3c-0.6,1.6-0.9,3.4-0.9,5.2   c0,1.9,0.3,3.6,0.9,5.3c0.6,1.6,1.4,3.1,2.4,4.3c1.1,1.2,2.4,2.2,3.9,2.9c1.5,0.7,3.3,1.1,5.2,1.1c1.6,0,3-0.3,4.3-0.8   c1.3-0.5,2.4-1.2,3.4-2.2c1-0.9,1.7-2,2.3-3.3c0.6-1.3,0.9-2.7,1-4.2h-4.4C106.3,54.9,106.1,55.8,105.8,56.6z"
   id="path264" />
	<path
   class="st1"
   d="M130,47.3c-0.8-0.9-1.8-1.6-3-2c-1.2-0.5-2.5-0.7-4-0.7c-1.5,0-2.8,0.2-4,0.7c-1.2,0.5-2.2,1.2-3,2   c-0.8,0.9-1.4,1.9-1.9,3.1c-0.4,1.2-0.6,2.5-0.6,4c0,1.5,0.2,2.8,0.6,4c0.4,1.2,1,2.3,1.9,3.1c0.8,0.9,1.8,1.6,3,2   c1.2,0.5,2.5,0.7,4,0.7c1.5,0,2.8-0.2,4-0.7c1.2-0.5,2.2-1.2,3-2c0.8-0.9,1.4-1.9,1.9-3.1c0.4-1.2,0.6-2.5,0.6-4   c0-1.4-0.2-2.7-0.6-4C131.4,49.3,130.8,48.2,130,47.3z M128,56.8c-0.2,0.8-0.5,1.5-1,2.1c-0.4,0.6-1,1.1-1.7,1.5   c-0.7,0.4-1.5,0.6-2.4,0.6s-1.7-0.2-2.4-0.6c-0.7-0.4-1.2-0.9-1.7-1.5c-0.4-0.6-0.8-1.3-1-2.1c-0.2-0.8-0.3-1.6-0.3-2.4   c0-0.8,0.1-1.6,0.3-2.4s0.5-1.5,1-2.1c0.4-0.6,1-1.1,1.7-1.5c0.7-0.4,1.5-0.6,2.4-0.6s1.7,0.2,2.4,0.6c0.7,0.4,1.2,0.9,1.7,1.5   c0.4,0.6,0.8,1.3,1,2.1c0.2,0.8,0.3,1.6,0.3,2.4C128.4,55.2,128.2,56.1,128,56.8z"
   id="path266" />
	<path
   class="st1"
   d="M148.3,55.9c0,0.7-0.1,1.4-0.2,2c-0.2,0.6-0.4,1.2-0.8,1.6c-0.4,0.4-0.8,0.8-1.4,1.1c-0.6,0.3-1.3,0.4-2.2,0.4   c-1.1,0-2-0.3-2.6-1c-0.6-0.7-0.9-1.8-0.9-3.5V45.1h-4.1V57c0,2.5,0.6,4.3,1.7,5.5s2.9,1.8,5.4,1.8c1,0,2.1-0.3,3.1-0.9   c1-0.6,1.8-1.3,2.3-2.3h0.1v2.6h4.1V45.1h-4.1V55.9z"
   id="path268" />
	<path
   class="st1"
   d="M166.6,44.6c-1.2,0-2.4,0.3-3.4,0.9c-1,0.6-1.8,1.4-2.5,2.5l-0.1-0.1v-2.8h-3.9v18.8h4.1V52.8   c0-0.7,0.1-1.3,0.3-1.9c0.2-0.6,0.5-1.1,0.9-1.6c0.4-0.4,0.9-0.8,1.4-1.1c0.6-0.3,1.2-0.4,1.9-0.4c1.2,0,2.1,0.3,2.7,1   s0.9,1.7,0.9,3.2v11.8h4.1V50.9c0-2.1-0.6-3.7-1.8-4.8C170.3,45.1,168.7,44.6,166.6,44.6z"
   id="path270" />
	<path
   class="st1"
   d="M183,39.4h-4.1v5.6h-3.1v3.1h3.1v11.1c0,0.8,0.1,1.5,0.2,2.1c0.1,0.6,0.4,1.1,0.8,1.5c0.4,0.4,0.9,0.7,1.6,0.9   c0.7,0.2,1.5,0.3,2.6,0.3c0.5,0,0.9,0,1.3-0.1c0.4,0,0.9-0.1,1.3-0.1v-3.2c-0.3,0.1-0.6,0.1-0.9,0.1c-0.3,0-0.6,0-0.9,0   c-0.5,0-0.8-0.1-1.1-0.2c-0.3-0.1-0.5-0.3-0.6-0.5c-0.1-0.2-0.2-0.5-0.3-0.8c0-0.3-0.1-0.7-0.1-1.1v-10h3.7v-3.1H183V39.4z"
   id="path272" />
	<path
   class="st1"
   d="M204.8,47.9c-0.8-1-1.7-1.8-2.9-2.4c-1.2-0.6-2.5-0.9-4-0.9c-1.4,0-2.7,0.3-3.8,0.8c-1.1,0.5-2.1,1.3-2.8,2.2   c-0.8,0.9-1.4,2-1.8,3.2c-0.4,1.2-0.6,2.5-0.6,3.8c0,1.5,0.2,2.8,0.6,4c0.4,1.2,1,2.3,1.8,3.1c0.8,0.9,1.7,1.5,2.9,2   c1.1,0.5,2.4,0.7,3.9,0.7c1,0,2-0.1,2.9-0.4c0.9-0.3,1.8-0.7,2.5-1.2c0.8-0.5,1.4-1.2,1.9-2c0.5-0.8,0.9-1.7,1.1-2.7h-3.9   c-0.4,1-0.9,1.8-1.7,2.3c-0.7,0.5-1.7,0.8-2.9,0.8c-0.9,0-1.6-0.2-2.3-0.5c-0.6-0.3-1.2-0.7-1.6-1.2c-0.4-0.5-0.7-1.1-0.9-1.8   c-0.2-0.7-0.3-1.4-0.3-2.1h13.8c0.2-1.4,0.1-2.8-0.3-4.1C206.1,50.1,205.5,48.9,204.8,47.9z M192.9,52.8c0-0.7,0.2-1.4,0.4-2   c0.3-0.6,0.6-1.1,1-1.6s0.9-0.8,1.5-1.1c0.6-0.3,1.3-0.4,2-0.4c0.7,0,1.3,0.1,1.9,0.4c0.6,0.3,1.1,0.6,1.5,1.1   c0.4,0.4,0.7,1,0.9,1.6c0.2,0.6,0.4,1.2,0.4,1.9H192.9z"
   id="path274" />
	<path
   class="st1"
   d="M220.3,44.6c-0.2,0-0.5,0-1,0c-0.6,0-1.2,0.1-1.9,0.4c-0.6,0.2-1.2,0.6-1.7,1c-0.5,0.4-0.9,0.8-1.3,1.3   c-0.4,0.5-0.6,1-0.7,1.5h-0.1v-3.6h-3.9v18.8h4.1v-8.9c0-1,0.1-2,0.4-2.8c0.3-0.8,0.6-1.5,1.1-2c0.5-0.5,1-1,1.6-1.2   c0.6-0.3,1.3-0.4,2-0.4c0.3,0,0.6,0,0.9,0.1s0.6,0.1,0.9,0.1v-4C220.7,44.6,220.5,44.6,220.3,44.6z"
   id="path276" />
	<path
   class="st1"
   d="M46.1,49.9c2-2.6,3-6,2.5-9.4c-0.5-3.3-2.2-6.3-4.9-8.3c-2.7-2-6-2.9-9.4-2.4c-6.9,1-11.7,7.4-10.8,14.3   c0.9,6.3,6.3,10.9,12.5,10.9c0.6,0,1.2,0,1.8-0.1c1.5-0.2,3-0.7,4.3-1.4c0.6-0.3,1.1-0.7,1.6-1l6.8,6.8c0.3,0.3,0.8,0.5,1.2,0.5   c0.4,0,0.9-0.2,1.2-0.5c0.7-0.7,0.7-1.7,0-2.4L46.1,49.9z M40.4,50.3c-1,0.5-2,0.9-3.1,1c-5,0.7-9.7-2.8-10.4-7.9   c-0.7-5,2.8-9.7,7.9-10.4c0.4-0.1,0.9-0.1,1.3-0.1c2,0,3.9,0.6,5.5,1.9c2,1.5,3.2,3.7,3.6,6.1C45.7,44.7,43.8,48.5,40.4,50.3z"
   id="path278" />
	<path
   class="st1"
   d="M35.5,38.2c-2.2,0.3-3.8,2.4-3.5,4.6c0.3,2.2,2.4,3.8,4.6,3.5c2.2-0.3,3.8-2.4,3.5-4.6   C39.8,39.4,37.7,37.9,35.5,38.2z"
   id="path280" />
	<path
   class="st1"
   d="M70.1,38.6c-2.2,0.4-6,1.2-7.8,1.5c-0.3,0.1-0.6-0.1-0.7-0.4C59.8,34.2,51.2,20.5,32,23.4   C15.9,25.9,6.9,44.2,4.7,49c-0.2,0.5,0.2,1.1,0.8,1.1L7.8,50c1.7-0.1,4.7-0.3,10.3,0.9c2.4,0.5,3-0.3,3.2-1.2   c0.1-1.8-1.1-1.9-2.9-2.3c-3-0.6-6.2-0.7-7.7-0.8c-0.4,0-0.7-0.5-0.5-0.8c3.2-6,11.8-17.7,22.2-19.1c17.5-2.9,24.8,11.3,25.8,14.5   c0.1,0.3,0,0.6-0.3,0.8c-1.2,0.9-3.8,2.8-5.1,3.7c-1,0.7-2.2,1.9-1,3.2c1.3,1.4,2.8-0.2,3.5-0.8c1.5-1.2,1.8-1.3,3.1-2.2   c1.8-1.3,3-2,4.5-2.4c1.8-0.3,5.5-1.1,7.7-1.5c1-0.2,1.6-1.1,1.4-2.1C71.9,39,71,38.4,70.1,38.6z"
   id="path282" />
	<path
   class="st1"
   d="M8.1,24.9c0.5,0,1-0.2,1.4-0.6c0.1-0.1,10.6-11.4,26.1-11.4c19.4,0,26.8,8.9,26.8,9c0.6,0.8,1.8,1,2.7,0.3   c0.8-0.6,1-1.8,0.3-2.7C65.1,19.1,57,9.1,35.6,9.1C18.4,9.1,7.2,21.2,6.7,21.7c-0.7,0.8-0.6,2,0.1,2.7C7.2,24.7,7.7,24.9,8.1,24.9z   "
   id="path284" />
</g>
</svg>
