<?xml version="1.0" encoding="UTF-8" standalone="no"?>
<!-- Generator: Adobe Illustrator 28.0.0, SVG Export Plug-In . SVG Version: 6.00 Build 0)  -->

<svg
   version="1.1"
   id="Capa_1"
   x="0px"
   y="0px"
   viewBox="0 0 64 64"
   xml:space="preserve"
   width="64"
   height="64"
   xmlns="http://www.w3.org/2000/svg"
   xmlns:svg="http://www.w3.org/2000/svg"><defs
   id="defs230" />
<style
   type="text/css"
   id="style211">
	.st0{fill:#FFFFFF;}
	.st1{fill:#DBAF61;}
	.st2{fill:#CC7658;}
	.st3{fill:#934147;}
	.st4{opacity:0.6;fill:#DBAF61;}
	.st5{opacity:0.6;fill:#FFFFFF;}
	.st6{opacity:0.6;fill:#CC7658;}
	.st7{opacity:0.6;fill:#934147;}
</style>
<g
   id="g225">
	<path
   class="st3"
   d="M 50.2,64 H 13.8 C 6.2,64 0,57.8 0,50.2 V 13.8 C 0,6.2 6.2,0 13.8,0 H 50.1 C 57.8,0 64,6.2 64,13.8 V 50.1 C 64,57.8 57.8,64 50.2,64 Z"
   id="path213" />
	<g
   id="g223">
		<path
   class="st5"
   d="m 37.6,43.4 c 1.4,-1.9 2.1,-4.3 1.8,-6.7 -0.3,-2.4 -1.6,-4.5 -3.5,-6 -1.9,-1.5 -4.3,-2.1 -6.7,-1.7 -4.9,0.7 -8.4,5.3 -7.7,10.2 0.6,4.5 4.5,7.8 8.9,7.8 0.4,0 0.8,0 1.2,-0.1 1.1,-0.2 2.1,-0.5 3.1,-1 0.4,-0.2 0.8,-0.5 1.1,-0.7 l 4.9,4.9 c 0.2,0.2 0.5,0.4 0.9,0.4 0.3,0 0.6,-0.1 0.9,-0.4 0.5,-0.5 0.5,-1.2 0,-1.7 z m -4,0.3 c -0.7,0.4 -1.4,0.6 -2.2,0.7 -3.6,0.5 -6.9,-2 -7.4,-5.6 -0.5,-3.6 2,-6.9 5.6,-7.4 0.3,0 0.6,-0.1 0.9,-0.1 1.4,0 2.8,0.5 4,1.3 1.4,1.1 2.3,2.6 2.6,4.4 0.2,2.7 -1.1,5.4 -3.5,6.7 z"
   id="path215" />
		<path
   class="st0"
   d="m 30,35 c -1.6,0.2 -2.7,1.7 -2.5,3.3 0.2,1.6 1.7,2.7 3.3,2.5 1.6,-0.2 2.7,-1.7 2.5,-3.3 C 33.1,35.9 31.6,34.8 30,35 Z"
   id="path217" />
		<path
   class="st0"
   d="m 56.2,36.3 c -0.1,-0.7 -0.8,-1.1 -1.5,-1 -1.6,0.3 -4.3,0.8 -5.5,1.1 -0.2,0 -0.4,-0.1 -0.5,-0.3 C 47.4,32.2 41.3,22.5 27.6,24.5 16.1,26.3 9.6,39.4 8.1,42.8 c -0.2,0.4 0.1,0.8 0.5,0.8 l 1.7,-0.1 c 1.2,0 3.4,-0.2 7.4,0.7 1.7,0.3 2.1,-0.2 2.3,-0.9 0.1,-1.3 -0.8,-1.4 -2.1,-1.6 -2.2,-0.4 -4.4,-0.5 -5.5,-0.6 -0.3,0 -0.5,-0.3 -0.3,-0.6 2.3,-4.3 8.5,-12.6 15.8,-13.6 12.5,-2.1 17.7,8.1 18.4,10.3 0.1,0.2 0,0.5 -0.2,0.6 -0.9,0.6 -2.7,2 -3.7,2.7 -0.7,0.5 -1.6,1.4 -0.7,2.3 0.9,1 2,-0.1 2.5,-0.5 1.1,-0.8 1.3,-0.9 2.2,-1.6 1.3,-1 2.2,-1.4 3.2,-1.7 1.3,-0.2 3.9,-0.8 5.5,-1.1 0.8,-0.3 1.2,-0.9 1.1,-1.6 z"
   id="path219" />
		<path
   class="st0"
   d="m 10.5,25.5 c 0.4,0 0.7,-0.1 1,-0.4 C 11.6,25 19,17 30.1,17 c 13.8,0 19.1,6.4 19.2,6.4 0.5,0.6 1.3,0.7 1.9,0.2 0.6,-0.5 0.7,-1.3 0.2,-1.9 -0.2,-0.3 -6,-7.5 -21.3,-7.5 -12.3,0 -20.3,8.7 -20.6,9 -0.5,0.6 -0.5,1.5 0.1,2 0.3,0.2 0.6,0.3 0.9,0.3 z"
   id="path221" />
	</g>
</g>
</svg>
