<svg xmlns="http://www.w3.org/2000/svg" xml:space="preserve" width="64" height="64" viewBox="0 0 64 64"><path d="M50.2 64H13.8C6.2 64 0 57.8 0 50.2V13.8C0 6.2 6.2 0 13.8 0h36.3C57.8 0 64 6.2 64 13.8v36.3C64 57.8 57.8 64 50.2 64Z" style="fill:#934147"/><path d="M37.6 43.4c1.4-1.9 2.1-4.3 1.8-6.7-.3-2.4-1.6-4.5-3.5-6s-4.3-2.1-6.7-1.7c-4.9.7-8.4 5.3-7.7 10.2.6 4.5 4.5 7.8 8.9 7.8.4 0 .8 0 1.2-.1 1.1-.2 2.1-.5 3.1-1 .4-.2.8-.5 1.1-.7l4.9 4.9c.2.2.5.4.9.4.3 0 .6-.1.9-.4.5-.5.5-1.2 0-1.7zm-4 .3c-.7.4-1.4.6-2.2.7-3.6.5-6.9-2-7.4-5.6-.5-3.6 2-6.9 5.6-7.4.3 0 .6-.1.9-.1 1.4 0 2.8.5 4 1.3 1.4 1.1 2.3 2.6 2.6 4.4.2 2.7-1.1 5.4-3.5 6.7z" style="opacity:.6;fill:#fff"/><path fill="#fff" d="M30 35c-1.6.2-2.7 1.7-2.5 3.3.2 1.6 1.7 2.7 3.3 2.5 1.6-.2 2.7-1.7 2.5-3.3-.2-1.6-1.7-2.7-3.3-2.5Z"/><path fill="#fff" d="M56.2 36.3c-.1-.7-.8-1.1-1.5-1-1.6.3-4.3.8-5.5 1.1-.2 0-.4-.1-.5-.3-1.3-3.9-7.4-13.6-21.1-11.6-11.5 1.8-18 14.9-19.5 18.3-.2.4.1.8.5.8l1.7-.1c1.2 0 3.4-.2 7.4.7 1.7.3 2.1-.2 2.3-.9.1-1.3-.8-1.4-2.1-1.6-2.2-.4-4.4-.5-5.5-.6-.3 0-.5-.3-.3-.6 2.3-4.3 8.5-12.6 15.8-13.6 12.5-2.1 17.7 8.1 18.4 10.3.1.2 0 .5-.2.6-.9.6-2.7 2-3.7 2.7-.7.5-1.6 1.4-.7 2.3.9 1 2-.1 2.5-.5 1.1-.8 1.3-.9 2.2-1.6 1.3-1 2.2-1.4 3.2-1.7 1.3-.2 3.9-.8 5.5-1.1.8-.3 1.2-.9 1.1-1.6z"/><path fill="#fff" d="M10.5 25.5c.4 0 .7-.1 1-.4.1-.1 7.5-8.1 18.6-8.1 13.8 0 19.1 6.4 19.2 6.4.5.6 1.3.7 1.9.2.6-.5.7-1.3.2-1.9-.2-.3-6-7.5-21.3-7.5-12.3 0-20.3 8.7-20.6 9-.5.6-.5 1.5.1 2 .3.2.6.3.9.3z"/></svg>
