<?xml version="1.0" encoding="UTF-8" standalone="no"?>
<!-- Generator: Adobe Illustrator 28.0.0, SVG Export Plug-In . SVG Version: 6.00 Build 0)  -->

<svg
   version="1.1"
   id="Capa_1"
   x="0px"
   y="0px"
   viewBox="0 0 64 64"
   xml:space="preserve"
   width="64"
   height="64"
   xmlns="http://www.w3.org/2000/svg"
   xmlns:svg="http://www.w3.org/2000/svg"><defs
   id="defs570" />
<style
   type="text/css"
   id="style551">
	.st0{fill:#FFFFFF;}
	.st1{fill:#DBAF61;}
	.st2{fill:#CC7658;}
	.st3{fill:#934147;}
	.st4{opacity:0.6;fill:#DBAF61;}
	.st5{opacity:0.6;fill:#FFFFFF;}
	.st6{opacity:0.6;fill:#CC7658;}
	.st7{opacity:0.6;fill:#934147;}
</style>
<g
   id="g565">
	<path
   class="st2"
   d="M50.2,64H13.8C6.2,64,0,57.8,0,50.2V13.8C0,6.2,6.2,0,13.8,0h36.3C57.8,0,64,6.2,64,13.8v36.3   C64,57.8,57.8,64,50.2,64z"
   id="path553" />
	<g
   id="g563">
		<path
   class="st5"
   d="M37.6,43.4c1.4-1.9,2.1-4.3,1.8-6.7c-0.3-2.4-1.6-4.5-3.5-6c-1.9-1.5-4.3-2.1-6.7-1.7    c-4.9,0.7-8.4,5.3-7.7,10.2c0.6,4.5,4.5,7.8,8.9,7.8c0.4,0,0.8,0,1.2-0.1c1.1-0.2,2.1-0.5,3.1-1c0.4-0.2,0.8-0.5,1.1-0.7l4.9,4.9    c0.2,0.2,0.5,0.4,0.9,0.4c0.3,0,0.6-0.1,0.9-0.4c0.5-0.5,0.5-1.2,0-1.7L37.6,43.4z M33.6,43.7c-0.7,0.4-1.4,0.6-2.2,0.7    c-3.6,0.5-6.9-2-7.4-5.6c-0.5-3.6,2-6.9,5.6-7.4c0.3,0,0.6-0.1,0.9-0.1c1.4,0,2.8,0.5,4,1.3c1.4,1.1,2.3,2.6,2.6,4.4    C37.3,39.7,36,42.4,33.6,43.7z"
   id="path555" />
		<path
   class="st0"
   d="M30,35c-1.6,0.2-2.7,1.7-2.5,3.3c0.2,1.6,1.7,2.7,3.3,2.5c1.6-0.2,2.7-1.7,2.5-3.3C33.1,35.9,31.6,34.8,30,35    z"
   id="path557" />
		<path
   class="st0"
   d="M56.2,36.3c-0.1-0.7-0.8-1.1-1.5-1c-1.6,0.3-4.3,0.8-5.5,1.1c-0.2,0-0.4-0.1-0.5-0.3    c-1.3-3.9-7.4-13.6-21.1-11.6c-11.5,1.8-18,14.9-19.5,18.3c-0.2,0.4,0.1,0.8,0.5,0.8l1.7-0.1c1.2,0,3.4-0.2,7.4,0.7    c1.7,0.3,2.1-0.2,2.3-0.9c0.1-1.3-0.8-1.4-2.1-1.6c-2.2-0.4-4.4-0.5-5.5-0.6c-0.3,0-0.5-0.3-0.3-0.6c2.3-4.3,8.5-12.6,15.8-13.6    c12.5-2.1,17.7,8.1,18.4,10.3c0.1,0.2,0,0.5-0.2,0.6c-0.9,0.6-2.7,2-3.7,2.7c-0.7,0.5-1.6,1.4-0.7,2.3c0.9,1,2-0.1,2.5-0.5    c1.1-0.8,1.3-0.9,2.2-1.6c1.3-1,2.2-1.4,3.2-1.7c1.3-0.2,3.9-0.8,5.5-1.1C55.9,37.6,56.3,37,56.2,36.3z"
   id="path559" />
		<path
   class="st0"
   d="M10.5,25.5c0.4,0,0.7-0.1,1-0.4c0.1-0.1,7.5-8.1,18.6-8.1c13.8,0,19.1,6.4,19.2,6.4c0.5,0.6,1.3,0.7,1.9,0.2    c0.6-0.5,0.7-1.3,0.2-1.9c-0.2-0.3-6-7.5-21.3-7.5c-12.3,0-20.3,8.7-20.6,9C9,23.8,9,24.7,9.6,25.2C9.9,25.4,10.2,25.5,10.5,25.5z    "
   id="path561" />
	</g>
</g>
</svg>
